<?xml version="1.0" encoding="utf-8"?>
<!-- Generator: Adobe Illustrator 21.1.0, SVG Export Plug-In . SVG Version: 6.00 Build 0)  -->
<svg version="1.1" id="Layer_1" xmlns="http://www.w3.org/2000/svg" xmlns:xlink="http://www.w3.org/1999/xlink" x="0px" y="0px"
	 viewBox="0 0 20 19" enable-background="new 0 0 20 19" xml:space="preserve">
<g>
	<path d="M18.5,3h-17C0.7,3,0,2.3,0,1.5v0C0,0.7,0.7,0,1.5,0l17,0C19.3,0,20,0.7,20,1.5v0C20,2.3,19.3,3,18.5,3z"/>
</g>
<g>
	<path d="M18.5,19h-17C0.7,19,0,18.3,0,17.5v0C0,16.7,0.7,16,1.5,16h17c0.8,0,1.5,0.7,1.5,1.5v0C20,18.3,19.3,19,18.5,19z"/>
</g>
<g>
	<path d="M18.5,11h-17C0.7,11,0,10.3,0,9.5v0C0,8.7,0.7,8,1.5,8h17C19.3,8,20,8.7,20,9.5v0C20,10.3,19.3,11,18.5,11z"/>
</g>
</svg>
