<?xml version="1.0" encoding="utf-8"?>
<!-- Generator: Adobe Illustrator 21.1.0, SVG Export Plug-In . SVG Version: 6.00 Build 0)  -->
<svg version="1.1" id="Layer_1" xmlns="http://www.w3.org/2000/svg" xmlns:xlink="http://www.w3.org/1999/xlink" x="0px" y="0px"
	 viewBox="0 0 14 24" enable-background="new 0 0 14 24" xml:space="preserve">
<g>
	<g>
		<path d="M12,0H2C0.9,0,0,0.9,0,2v20c0,1.1,0.9,2,2,2h10c1.1,0,2-0.9,2-2V2C14,0.9,13.1,0,12,0z M13,22c0,0.6-0.4,1-1,1H2
			c-0.6,0-1-0.4-1-1V2c0-0.6,0.4-1,1-1h10c0.6,0,1,0.4,1,1V22z M2,19h10V3H2V19z M3,4h8v14H3V4z M7,20c-0.6,0-1,0.4-1,1
			c0,0.6,0.4,1,1,1s1-0.4,1-1C8,20.4,7.6,20,7,20z"/>
	</g>
</g>
</svg>
